<?xml version="1.0" encoding="utf-8"?><svg viewBox="0 0 31 31" xmlns="http://www.w3.org/2000/svg" xmlns:xlink="http://www.w3.org/1999/xlink"><style>:root>svg{display:none}:root>svg:target{display:block}</style><svg fill="none" viewBox="0 0 31 31" id="Telegram" xmlns="http://www.w3.org/2000/svg"><path d="M15.05 27.09a12.04 12.04 0 100-24.08 12.04 12.04 0 000 24.08zm0 3.01C6.738 30.1 0 23.362 0 15.05 0 6.738 6.738 0 15.05 0 23.362 0 30.1 6.738 30.1 15.05c0 8.312-6.738 15.05-15.05 15.05zm-4.68-13.29L6.61 15.64c-.813-.249-.817-.809.182-1.21l14.648-5.66c.85-.346 1.332.092 1.057 1.19l-2.494 11.769c-.175.838-.679 1.038-1.379.651l-3.839-2.841-1.79 1.728c-.183.177-.332.33-.615.367-.281.039-.513-.045-.683-.512l-1.31-4.32-.018.011v-.001z" fill="currentColor"/></svg><svg fill="none" viewBox="0 0 31 21" id="VK" xmlns="http://www.w3.org/2000/svg"><path d="M0 3C0 1.96.575 1.401 1.725 1.32l4.432.03c.297 0 .496.153.595.459.456 1.526.966 2.844 1.531 3.954.566 1.109 1.304 2.386 2.216 3.831.08.184.208.275.387.275.139 0 .248-.071.327-.213l.09-.336.03-5.282c0-.367-.085-.611-.254-.733-.168-.122-.48-.214-.937-.275-.357-.061-.535-.285-.535-.672 0-.081.01-.142.03-.183C10.053.852 11.243.19 13.206.19L14.87.16c.754 0 1.379.193 1.874.58.496.387.744.997.744 1.832v6.93c.139.103.268.154.387.154.297 0 .555-.184.773-.55 2.181-3.135 3.36-5.231 3.54-6.29 0-.02.02-.071.059-.152.139-.306.367-.57.684-.794.317-.224.595-.377.833-.458a.578.578 0 01.267-.061h4.61l.298.03c.397 0 .704.194.922.58.08.122.134.255.164.397.03.143.05.285.06.428.009.142.014.224.014.244v.214c-.139.834-.49 1.725-1.056 2.671-.565.947-1.284 1.97-2.156 3.069-.873 1.099-1.418 1.822-1.636 2.168-.179.244-.268.468-.268.671 0 .163.08.346.238.55l4.343 5.618c.238.326.357.682.357 1.069 0 .468-.179.855-.536 1.16a2.191 2.191 0 01-1.279.519l-.505.03H23.08c-.02 0-.06.006-.12.016a.89.89 0 01-.118.015c-.436 0-.843-.194-1.22-.58-.139-.163-1.07-1.364-2.796-3.603a1.6 1.6 0 00-.416-.397c-.08.326-.183.794-.312 1.405-.13.61-.223 1.048-.283 1.312l-.09.52c-.197.712-.614 1.14-1.248 1.282l-.417.03h-2.915c-1.645 0-3.286-.773-4.922-2.32-1.636-1.547-3.108-3.547-4.417-6C2.498 9.996 1.28 7.142.15 3.885.049 3.62 0 3.325 0 2.999zm17.876 7.907c-.417 0-.794-.117-1.13-.35a1.11 1.11 0 01-.506-.963V2.572c0-.407-.1-.697-.298-.87-.198-.173-.545-.26-1.04-.26l-1.696.061c-.853 0-1.497.153-1.933.458.872.428 1.308 1.12 1.308 2.077V9.41c-.04.51-.238.931-.595 1.267-.357.336-.753.504-1.19.504-.594 0-1.05-.295-1.367-.885-1.547-2.402-2.697-4.682-3.45-6.84l-.268-.793-3.956-.031c-.258 0-.402.015-.431.046-.03.03-.045.117-.045.26 0 .183.02.376.06.58l.624 1.71c1.666 4.416 3.475 7.897 5.428 10.441 1.953 2.545 3.872 3.817 5.755 3.817h2.975c.119 0 .208-.036.267-.107.06-.071.11-.208.15-.412l.059-.305.565-2.687c.158-.367.297-.61.416-.733.218-.224.476-.336.774-.336.475 0 .961.295 1.457.886l2.528 3.297c.159.265.327.397.506.397h4.907c.595 0 .893-.153.893-.458a.601.601 0 00-.09-.305l-4.312-5.527c-.337-.427-.506-.885-.506-1.374 0-.488.159-.956.476-1.404.258-.407.758-1.084 1.502-2.03a45.301 45.301 0 001.948-2.657c.555-.824.922-1.572 1.1-2.244l.09-.397a.485.485 0 01-.03-.198.753.753 0 00-.03-.23h-4.67a1.63 1.63 0 00-.713.55l-.179.58c-.495 1.405-1.794 3.573-3.896 6.504-.416.407-.902.61-1.457.61z" fill="currentColor"/></svg><svg fill="none" viewBox="0 0 31 31" id="Whatsapp" xmlns="http://www.w3.org/2000/svg"><path d="M7.906 24.823l1.09.637a11.97 11.97 0 006.054 1.63A12.04 12.04 0 103.01 15.05c0 2.161.567 4.234 1.631 6.056l.636 1.09-.983 3.613 3.612-.986zM.006 30.1l2.035-7.477A14.98 14.98 0 010 15.05C0 6.738 6.738 0 15.05 0 23.362 0 30.1 6.738 30.1 15.05c0 8.312-6.738 15.05-15.05 15.05a14.98 14.98 0 01-7.57-2.04L.006 30.1zM9.618 7.989c.202-.016.405-.016.607-.006.081.006.162.015.244.024.24.027.503.173.591.374.449 1.018.885 2.043 1.307 3.07.093.23.037.523-.14.809-.123.193-.255.38-.396.56-.17.218-.536.618-.536.618s-.149.178-.092.399c.021.084.09.206.154.309l.088.143a9.534 9.534 0 001.536 1.908c.18.174.356.354.546.52a9.04 9.04 0 002.363 1.506l.007.003c.128.055.193.085.38.165.093.04.19.074.287.1a.527.527 0 00.552-.196c1.09-1.32 1.19-1.406 1.198-1.406v.003a.724.724 0 01.57-.191c.09.006.181.023.266.06.799.366 2.107.936 2.107.936l.875.393c.148.07.282.238.287.399.005.1.014.263-.02.561-.048.39-.166.858-.283 1.103-.08.168-.187.321-.316.455a3.58 3.58 0 01-.497.433 5.664 5.664 0 01-.188.136 7.53 7.53 0 01-.576.33 2.994 2.994 0 01-1.254.347c-.278.015-.557.036-.837.021-.012 0-.855-.13-.855-.13a14.218 14.218 0 01-5.779-3.08c-.34-.3-.654-.622-.976-.942-1.34-1.332-2.351-2.77-2.965-4.127a5.223 5.223 0 01-.498-2.128 4.107 4.107 0 01.848-2.528c.11-.142.214-.29.393-.46.191-.18.312-.276.443-.342.174-.088.364-.139.558-.151l.001.002z" fill="currentColor"/></svg><svg fill="none" viewBox="0 0 24 25" id="cart" xmlns="http://www.w3.org/2000/svg"><path d="M4.086 6.046l-3.6-3.54L2.056.96l3.6 3.542h16.92a1.125 1.125 0 01.89.44 1.083 1.083 0 01.173.965l-2.664 8.737a1.092 1.092 0 01-.4.563c-.192.14-.425.216-.664.216H6.306v2.184h12.211v2.184H5.196a1.12 1.12 0 01-.785-.32 1.083 1.083 0 01-.325-.772V6.046zm2.22.64v6.553h12.78l1.998-6.553H6.306zM5.751 24.16a1.68 1.68 0 01-1.177-.48 1.625 1.625 0 01-.488-1.158c0-.435.175-.851.488-1.159a1.68 1.68 0 011.177-.48c.442 0 .865.173 1.177.48.313.308.488.724.488 1.159 0 .434-.175.851-.488 1.158a1.68 1.68 0 01-1.177.48zm13.321 0c-.441 0-.865-.173-1.177-.48a1.625 1.625 0 01-.488-1.158c0-.435.175-.851.488-1.159.312-.307.736-.48 1.177-.48.442 0 .865.173 1.178.48a1.625 1.625 0 010 2.317c-.313.307-.736.48-1.178.48z" fill="currentColor"/></svg><svg fill="none" viewBox="0 0 23 20" id="heart" xmlns="http://www.w3.org/2000/svg"><path d="M11.487 1.654c2.584-2.282 6.577-2.206 9.066.247a6.416 6.416 0 01.26 8.911L11.484 20l-9.326-9.188a6.417 6.417 0 01.26-8.911c2.491-2.45 6.476-2.532 9.068-.247zm7.508 1.776c-1.65-1.625-4.312-1.691-6.039-.166L11.488 4.56l-1.47-1.295a4.452 4.452 0 00-6.043.167 4.276 4.276 0 00-.211 5.898l7.722 7.607 7.721-7.606a4.277 4.277 0 00-.212-5.901z" fill="currentColor"/></svg><svg fill="none" viewBox="0 0 20 20" id="lang" xmlns="http://www.w3.org/2000/svg"><path d="M1.667 10a8.333 8.333 0 1016.666 0 8.333 8.333 0 10-16.666 0z" stroke="#838383" stroke-width="1.5" stroke-linecap="round" stroke-linejoin="round"/><path d="M10.833 1.708S13.333 5 13.333 10s-2.5 8.292-2.5 8.292M9.167 18.292S6.667 15 6.667 10s2.5-8.292 2.5-8.292M2.192 12.917h15.616M2.192 7.083h15.616" stroke="#838383" stroke-width="1.5" stroke-linecap="round" stroke-linejoin="round"/></svg><svg fill="none" viewBox="0 0 25 23" id="star" xmlns="http://www.w3.org/2000/svg"><path d="M12.627 18.014l-7.21 4.352 1.96-8.121L.96 8.815l8.421-.667L12.627.44l3.244 7.708 8.423.667-6.417 5.43 1.96 8.12-7.21-4.35z" fill="#FFCE7F"/></svg><svg fill="none" viewBox="0 0 21 17" id="trash" xmlns="http://www.w3.org/2000/svg"><path d="M15.885 3.4h4.982v1.7h-1.993v11.05a.792.792 0 01-.292.601 1.09 1.09 0 01-.704.249H3.928a1.09 1.09 0 01-.704-.249.792.792 0 01-.292-.601V5.1H.939V3.4h4.982V.85c0-.225.105-.442.292-.601C6.4.089 6.653 0 6.917 0h7.971c.265 0 .518.09.705.249.187.16.292.376.292.601V3.4zm.996 1.7H4.925v10.2H16.88V5.1zm-4.57 5.1l1.762 1.503-1.409 1.202-1.761-1.503-1.762 1.503-1.409-1.202L9.494 10.2 7.732 8.697l1.41-1.202 1.76 1.503 1.763-1.503 1.408 1.202-1.761 1.503zM7.915 1.7v1.7h5.978V1.7H7.914z" fill="#DF6464"/></svg></svg>